#!OML:ASF E:\Mandelcareful walks\Project 1\Capture day 1\Session 1\Subject1.ASF
:FULLY-SPECIFIED
:DEGREES
1270
root 2.73241 16.8934 1.02025 -136.417 -87.2788 144.105
lowerback -7.2656 -0.794889 -2.42702
upperback -1.42359 -0.921063 0.53053
thorax 2.64844 -0.492839 1.82348
lowerneck -20.9089 -9.94003 -13.9647
upperneck 32.5401 -12.6835 6.19599
head 16.6011 -6.41605 2.29788
rclavicle -6.70277e-015 5.96354e-016
rhumerus -23.9246 -55.4688 -11.0518
rradius 26.3954
rwrist -24.4263
rhand -8.87409 -29.2984
rfingers 7.12502
rthumb 17.0676 -58.5686
lclavicle -6.70277e-015 5.96354e-016
lhumerus -27.0219 40.7142 12.2235
lradius 25.3176
lwrist 20.3068
lhand -33.1202 -9.55855
lfingers 7.12502
lthumb -6.33027 20.3269
rfemur -7.08213 7.66725 10.8028
rtibia 14.4917
rfoot -17.0667 -21.6034
rtoes 10.5364
lfemur -10.7343 -10.8074 -14.1529
ltibia 25.8604
lfoot -26.7465 24.7563
ltoes 3.25177
1271
root 2.74787 16.8904 1.01783 -138.448 -87.2795 146.115
lowerback -7.23901 -0.762964 -2.37141
upperback -1.48175 -0.884779 0.517204
thorax 2.5707 -0.473306 1.78256
lowerneck -21.1007 -9.4295 -13.4206
upperneck 33.393 -12.1594 6.00023
head 16.936 -6.18529 2.24248
rclavicle 7.56003e-015 0
rhumerus -24.0417 -55.9249 -10.9499
rradius 26.2986
rwrist -23.8637
rhand -9.44704 -29.3092
rfingers 7.12502
rthumb 16.5161 -58.6262
lclavicle 7.56003e-015 0
lhumerus -26.7665 39.8525 12.5523
lradius 25.4542
lwrist 20.9351
lhand -32.8272 -9.41718
lfingers 7.12502
lthumb -6.04743 20.4765
rfemur -7.02345 7.49731 10.9496
rtibia 14.2859
rfoot -16.637 -21.6103
rtoes 9.9659
lfemur -10.8159 -10.6807 -14.0495
ltibia 25.9769
lfoot -26.7011 24.7189
ltoes 3.16981
1272
root 2.77791 16.8921 1.0125 -143.316 -87.3273 151.042
lowerback -7.13275 -0.717865 -2.22894
upperback -1.54818 -0.841102 0.572589
thorax 2.43966 -0.449006 1.76525
lowerneck -21.1649 -8.92859 -13.0924
upperneck 34.1463 -11.661 6.02392
head 17.2457 -5.96554 2.31751
rclavicle -7.10655e-015 7.95139e-016
rhumerus -23.9553 -56.171 -11.0124
rradius 26.1809
rwrist -23.5871
rhand -9.36933 -29.1481
rfingers 7.12502
rthumb 16.5909 -58.4589
lclavicle -7.10655e-015 7.95139e-016
lhumerus -26.7287 40.9493 12.2768
lradius 25.1902
lwrist 19.3675
lhand -31.9091 -9.60772
lfingers 7.12502
lthumb -5.16097 20.3094
rfemur -7.17169 7.7164 11.2743
rtibia 14.2541
rfoot -16.4289 -21.8637
rtoes 9.62404
lfemur -11.0121 -10.5375 -13.7286
ltibia 25.9644
lfoot -26.4427 24.8253
ltoes 2.8675
1273
root 2.76124 16.8895 1.02359 -136.141 -87.1952 143.693
lowerback -7.483 -0.768041 -2.44025
upperback -1.36099 -0.875566 0.456613
thorax 2.83105 -0.472741 1.75617
lowerneck -21.7219 -8.54081 -12.6611
upperneck 35.1711 -11.212 5.75025
head 17.8048 -5.78052 2.21338
rclavicle 6.01324e-015 -8.54774e-015
rhumerus -23.796 -56.4982 -11.0862
rradius 26.1019
rwrist -23.4016
rhand -9.29345 -29.0316
rfingers 7.12502
rthumb 16.6639 -58.3363
lclavicle 6.01324e-015 -8.54774e-015
lhumerus -26.5213 41.9091 12.3171
lradius 25.0126
lwrist 18.9343
lhand -32.0937 -9.6755
lfingers 7.12502
lthumb -5.33921 20.2372
rfemur -6.88718 6.41053 10.7672
rtibia 14.1923
rfoot -16.2053 -20.605
rtoes 9.24651
lfemur -10.7323 -10.4734 -14.2555
ltibia 25.9478
lfoot -26.4409 24.7055
ltoes 2.65109
1274
root 2.79158 16.9015 1.01542 -138.785 -87.0311 146.336
lowerback -7.21422 -0.714294 -2.61746
upperback -1.4177 -0.800832 0.546949
thorax 2.62255 -0.43409 1.95955
lowerneck -22.1229 -8.07162 -12.1899
upperneck 36.1692 -10.5894 5.27364
head 18.2908 -5.55792 2.05376
rclavicle 6.55989e-015 -3.97569e-015
rhumerus -23.732 -57.3255 -10.9583
rradius 25.9715
rwrist -22.7407
rhand -9.0055 -28.9718
rfingers 7.12502
rthumb 16.9411 -58.2529
lclavicle 6.55989e-015 -3.97569e-015
lhumerus -26.4566 42.6314 12.3085
lradius 24.8149
lwrist 18.4378
lhand -32.0618 -9.81327
lfingers 7.12502
lthumb -5.30838 20.1002
rfemur -7.02038 8.37415 10.7529
rtibia 14.0608
rfoot -16.8552 -22.0561
rtoes 10.1232
lfemur -10.8131 -10.413 -14.1889
ltibia 25.9497
lfoot -26.5507 24.7347
ltoes 3.0937
1275
root 2.78613 16.895 1.0179 -141.203 -87.2264 148.722
lowerback -7.36691 -0.706149 -2.37223
upperback -1.45527 -0.808741 0.618095
thorax 2.66703 -0.437157 1.8931
lowerneck -22.1732 -7.52509 -11.6924
upperneck 37.1365 -9.95186 4.87659
head 18.6969 -5.33284 1.93696
rclavicle 2.7395e-015 -2.5842e-015
rhumerus -24.0049 -58.0173 -10.5112
rradius 25.7867
rwrist -21.9715
rhand -8.54819 -28.883
rfingers 7.12502
rthumb 17.3813 -58.1259
lclavicle 2.7395e-015 -2.5842e-015
lhumerus -26.2952 42.7904 12.4393
lradius 24.6947
lwrist 18.149
lhand -31.9645 -9.92157
lfingers 7.12502
lthumb -5.21445 19.9943
rfemur -6.88684 7.91599 10.9456
rtibia 14.0673
rfoot -17.1438 -21.4015
rtoes 11.2908
lfemur -10.7418 -10.1379 -13.9803
ltibia 25.9233
lfoot -26.3142 24.5139
ltoes 2.49108
1276
root 2.79469 16.8891 1.01679 -142.639 -87.2164 150.065
lowerback -7.31763 -0.641461 -2.33284
upperback -1.47249 -0.72697 0.611304
thorax 2.61708 -0.395409 1.87231
lowerneck -22.1686 -7.03051 -11.2679
upperneck 37.96 -9.46697 4.75267
head 19.0731 -5.13802 1.92401
rclavicle 4.29872e-015 -9.74045e-015
rhumerus -24.1279 -57.3017 -10.5109
rradius 25.9003
rwrist -22.5464
rhand -8.44727 -28.9439
rfingers 7.12502
rthumb 17.4784 -58.1782
lclavicle 4.29872e-015 -9.74045e-015
lhumerus -25.9434 43.201 12.617
lradius 24.5211
lwrist 17.5586
lhand -31.9437 -9.9785
lfingers 7.12502
lthumb -5.1944 19.9378
rfemur -6.68542 8.20911 10.9999
rtibia 13.9706
rfoot -17.7276 -21.2803
rtoes 13.0678
lfemur -10.6784 -10.1282 -13.934
ltibia 25.9574
lfoot -26.2914 24.5593
ltoes 2.06555
1277
root 2.80507 16.8883 1.01665 -143.016 -87.115 150.393
lowerback -7.31953 -0.581109 -2.3599
upperback -1.44472 -0.64227 0.56224
thorax 2.64231 -0.353625 1.84481
lowerneck -22.0549 -6.57701 -11.0556
upperneck 38.4862 -9.05834 4.95273
head 19.3067 -4.9515 2.08861
rclavicle -6.6158e-015 6.95746e-015
rhumerus -24.0234 -55.978 -10.9139
rradius 26.1839
rwrist -23.7705
rhand -8.65404 -29.2248
rfingers 7.12502
rthumb 17.2794 -58.4766
lclavicle -6.6158e-015 6.95746e-015
lhumerus -25.6219 43.8833 12.6759
lradius 24.2663
lwrist 16.4777
lhand -31.7998 -10.0008
lfingers 7.12502
lthumb -5.05542 19.9189
rfemur -6.60206 8.34695 10.9489
rtibia 13.7875
rfoot -17.729 -21.3157
rtoes 13.3714
lfemur -10.6911 -10.2958 -13.9872
ltibia 26.0647
lfoot -26.5292 24.6903
ltoes 2.2572
1278
root 2.81468 16.8841 1.01804 -143.156 -87.1071 150.503
lowerback -7.42084 -0.541383 -2.32662
upperback -1.39132 -0.587171 0.52247
thorax 2.75047 -0.327338 1.78942
lowerneck -22.196 -6.1803 -10.6143
upperneck 39.2012 -8.66556 4.78126
head 19.6882 -4.78681 2.02381
rclavicle 1.37969e-014 -7.95139e-016
rhumerus -24.1432 -55.8659 -10.8976
rradius 26.2287
rwrist -23.8664
rhand -8.53675 -29.3391
rfingers 7.12502
rthumb 17.3923 -58.581
lclavicle 1.37969e-014 -7.95139e-016
lhumerus -25.4357 44.8487 12.5443
lradius 23.9204
lwrist 14.7422
lhand -31.0716 -10.1352
lfingers 7.12502
lthumb -4.35232 19.8
rfemur -6.57976 8.04846 10.9333
rtibia 13.7181
rfoot -17.4969 -21.0423
rtoes 13.2718
lfemur -10.7134 -10.3247 -13.9788
ltibia 26.0997
lfoot -26.6169 24.6497
ltoes 2.58817
1279
root 2.8231 16.8816 1.0165 -141.322 -87.051 148.56
lowerback -7.50382 -0.526285 -2.47314
upperback -1.27504 -0.549374 0.495619
thorax 2.91618 -0.312049 1.84694
lowerneck -22.4065 -5.77351 -10.1575
upperneck 39.8993 -8.2335 4.57884
head 20.0861 -4.6058 1.94802
rclavicle -2.29845e-016 3.57812e-015
rhumerus -24.2289 -56.4583 -10.7409
rradius 26.1606
rwrist -23.3294
rhand -8.25194 -29.3125
rfingers 7.12502
rthumb 17.6664 -58.5299
lclavicle -2.29845e-016 3.57812e-015
lhumerus -24.8712 43.981 13.4138
lradius 24.3002
lwrist 16.8974
lhand -32.1577 -9.94855
lfingers 7.12502
lthumb -5.40104 19.9626
rfemur -6.52354 7.83642 10.8294
rtibia 13.7614
rfoot -17.352 -20.8916
rtoes 12.9541
lfemur -10.6153 -10.1632 -14.1092
ltibia 26.0699
lfoot -26.4982 24.4845
ltoes 2.78479
1280
root 2.82788 16.8835 1.01327 -138.282 -86.9496 145.392
lowerback -7.52239 -0.543785 -2.71433
upperback -1.1817 -0.548552 0.451421
thorax 3.02482 -0.31554 1.93663
lowerneck -22.6437 -5.31996 -9.58854
upperneck 40.6016 -7.72469 4.26904
head 20.4862 -4.3932 1.81534
rclavicle -2.37299e-015 1.59028e-015
rhumerus -24.1583 -56.7317 -10.8497
rradius 26.1904
rwrist -22.9857
rhand -8.3578 -29.223
rfingers 7.12502
rthumb 17.5645 -58.4496
lclavicle -2.37299e-015 1.59028e-015
lhumerus -24.8949 44.8185 13.1931
lradius 24.0809
lwrist 15.4037
lhand -31.408 -10.1522
lfingers 7.12502
lthumb -4.67711 19.7762
rfemur -6.3845 7.81052 10.6535
rtibia 13.7559
rfoot -17.3484 -20.9184
rtoes 12.7834
lfemur -10.4879 -9.95354 -14.3476
ltibia 26.0775
lfoot -26.3123 24.3612
ltoes 2.78526
1281
root 2.83373 16.8844 1.01137 -138.645 -86.9838 145.674
lowerback -7.56471 -0.557771 -2.68726
upperback -1.1308 -0.566471 0.444686
thorax 3.10178 -0.325376 1.91219
lowerneck -22.6361 -4.85186 -9.04365
upperneck 41.1579 -7.21785 4.01276
head 20.7405 -4.18028 1.71559
rclavicle -1.00635e-015 -4.77083e-015
rhumerus -24.0477 -56.6937 -11.0799
rradius 26.2479
rwrist -22.8848
rhand -8.36791 -29.0687
rfingers 7.12502
rthumb 17.5548 -58.2961
lclavicle -1.00635e-015 -4.77083e-015
lhumerus -24.7947 44.9381 13.1864
lradius 23.9898
lwrist 14.9423
lhand -30.9338 -10.4153
lfingers 7.12502
lthumb -4.21925 19.5227
rfemur -6.26066 7.95678 10.7114
rtibia 13.6755
rfoot -17.3687 -21.065
rtoes 12.7714
lfemur -10.4185 -9.82889 -14.3225
ltibia 26.1284
lfoot -26.3179 24.2423
ltoes 2.74191
1282
root 2.84231 16.8798 1.0112 -140.936 -87.0821 147.863
lowerback -7.53978 -0.536923 -2.5195
upperback -1.10225 -0.55228 0.451654
thorax 3.11523 -0.31666 1.8265
lowerneck -22.5664 -4.4773 -8.66519
upperneck 41.7122 -6.88411 3.93833
head 21.0325 -4.03673 1.69429
rclavicle -3.50979e-015 3.97569e-015
rhumerus -24.0962 -56.6716 -11.0879
rradius 26.209
rwrist -22.8166
rhand -8.17215 -28.9622
rfingers 7.12502
rthumb 17.7432 -58.1727
lclavicle -3.50979e-015 3.97569e-015
lhumerus -24.4285 42.6483 13.9642
lradius 24.4767
lwrist 17.1527
lhand -30.8915 -10.4681
lfingers 7.12502
lthumb -4.17841 19.4707
rfemur -6.10233 7.99879 10.8948
rtibia 13.5568
rfoot -17.348 -21.0625
rtoes 12.9338
lfemur -10.3807 -9.88826 -14.1578
ltibia 26.192
lfoot -26.3925 24.2665
ltoes 2.50612
1283
root 2.84997 16.879 1.01286 -140.866 -87.1413 147.762
lowerback -7.48915 -0.525865 -2.44695
upperback -1.15093 -0.545022 0.421313
thorax 3.03526 -0.31094 1.75548
lowerneck -22.2858 -4.05274 -8.22736
upperneck 42.1709 -6.48577 3.82147
head 21.1879 -3.86719 1.65912
rclavicle -3.31722e-015 -1.19271e-015
rhumerus -24.2743 -56.5201 -10.9877
rradius 26.1867
rwrist -22.8368
rhand -8.05683 -28.9254
rfingers 7.12502
rthumb 17.8542 -58.1258
lclavicle -3.31722e-015 -1.19271e-015
lhumerus -24.3296 43.8259 13.7415
lradius 24.1491
lwrist 15.9428
lhand -30.7167 -11.0152
lfingers 7.12502
lthumb -4.00957 18.9268
rfemur -6.02661 7.72071 10.9288
rtibia 13.4713
rfoot -17.2234 -20.8579
rtoes 12.9935
lfemur -10.4478 -9.95774 -14.1177
ltibia 26.2313
lfoot -26.2748 24.3646
ltoes 2.2022
